<svg xmlns="http://www.w3.org/2000/svg" viewBox="0 0 512 512" width="100%" height="100%">
  <defs>
    <radialGradient id="instaGrad" cx="30%" cy="100%" r="110%">
      <stop offset="0%" stop-color="#FED373"/>
      <stop offset="25%" stop-color="#F15245"/>
      <stop offset="60%" stop-color="#D92E7F"/>
      <stop offset="100%" stop-color="#9B36B7"/>
    </radialGradient>
  </defs>

  <rect width="512" height="512" rx="140" fill="url(#instaGrad)"/>

  <g fill="#FFFFFF">
    <path d="M370,100 H142 C119,100 100,119 100,142 V370 C100,393 119,412 142,412 H370 C393,412 412,393 412,370 V142 C412,119 393,100 370,100 Z M376,370 C376,373.3 373.3,376 370,376 H142 C138.7,376 136,373.3 136,370 V142 C136,138.7 138.7,136 142,136 H370 C373.3,136 376,138.7 376,142 V370 Z" opacity="0.9"/>
    
    <circle cx="340" cy="172" r="22"/>

    <path d="M256,340 L242,327 C190.8,280.6 157,250 157,212.5 C157,181.5 180.3,158.2 211.2,158.2 C228.7,158.2 245.5,166.3 256,179.1 C266.5,166.3 283.3,158.2 300.8,158.2 C331.7,158.2 355,181.5 355,212.5 C355,250 321.2,280.6 270,327 L256,340 Z" opacity="0.3"/>
    
    <rect x="238" y="150" width="36" height="210" rx="18" transform="rotate(45 256 255)" stroke="url(#instaGrad)" stroke-width="12"/>
  </g>
</svg>
